
<svg xmlns="http://www.w3.org/2000/svg" viewBox="0 0 245 240">
  <path fill="#5865F2" d="M104.4 104.3c-5.7 0-10.3 5-10.3 11.1s4.6 11.1 10.3 11.1 10.3-5 10.3-11.1c.1-6.1-4.6-11.1-10.3-11.1zm36.2 0c-5.7 0-10.3 5-10.3 11.1s4.6 11.1 10.3 11.1c5.7 0 10.3-5 10.3-11.1s-4.5-11.1-10.3-11.1z"/>
  <path fill="#5865F2" d="M191.2 20H53.8C41.1 20 30.8 30.6 30.8 43.6v134.7c0 13 10.3 23.6 23 23.6h114.1l-5.3-18.4 12.8 11.8 12.1 11.2L215 220V43.6c0-13-10.3-23.6-23.8-23.6zM160 159.1s-4.5-5.4-8.2-10.1c16.3-4.6 22.5-14.7 22.5-14.7-5.1 3.3-10 5.7-14.3 7.3-6.2 2.6-12.1 4.3-17.9 5.4-11.8 2.2-22.6 1.6-31.9-.1-7-1.3-13.1-3.2-18.1-5.4-2.8-1.1-5.9-2.5-9-4.3-.4-.2-.8-.4-1.2-.6-.3-.2-.5-.3-.7-.4-3.2-1.8-5-3-5-3s6 10 21.9 14.7c-3.7 4.8-8.4 10.4-8.4 10.4-27.7-.9-38.3-19.1-38.3-19.1 0-40.4 18-73.1 18-73.1 18-13.5 35-13.1 35-13.1l1.2 1.4c-22.5 6.5-32.8 16.5-32.8 16.5s2.7-1.5 7.3-3.6c13.3-5.9 23.8-7.5 28.2-7.9.7-.1 1.3-.2 2-.2 7.2-.9 15.3-1.1 23.7-.2 11.2 1.3 23.2 4.6 35.5 11.3 0 0-9.8-9.3-30.8-15.7l1.7-1.9s17-.4 35 13.1c0 0 18 32.7 18 73.1 0 .1-10.7 18.2-38.4 19.1z"/>
</svg>
