<svg xmlns="http://www.w3.org/2000/svg" viewBox="0 0 245 240"><path fill="#5865F2" d="M104.4 104.8c-5.7 0-10.2 5-10.2 11.2s4.6 11.2 10.2 11.2c5.7 0 10.3-5 10.2-11.2 0-6.2-4.6-11.2-10.2-11.2Zm36.2 0c-5.7 0-10.2 5-10.2 11.2s4.6 11.2 10.2 11.2c5.7 0 10.3-5 10.2-11.2 0-6.2-4.6-11.2-10.2-11.2Z"/><path fill="#5865F2" d="M215 20H30C13.4 20 0 33.4 0 50v140c0 16.6 13.4 30 30 30h155l-7.3-25 17.6 16.4 16.6 15.3L245 240V50c0-16.6-13.4-30-30-30Zm-57 135s-5.3-6.3-9.7-12c19.2-5.4 26.5-17.4 26.5-17.4-6 4-11.7 6.8-16.8 8.7-7.3 3.1-14.3 5.2-21.2 6.4-14 2.6-26.8 1.9-37.8-.1-8.3-1.6-15.4-3.9-21.3-6.4-3.3-1.3-7-3-10.7-5.1-.4-.2-.7-.3-1.1-.5-.2-.1-.3-.2-.4-.2-1.8-1-2.8-1.7-2.8-1.7s7 11.6 25.5 17.3c-4.4 5.7-9.8 12.4-9.8 12.4-32.4-1-44.7-22.3-44.7-22.3 0-47.2 21.1-85.5 21.1-85.5 21.1-15.8 41.2-15.4 41.2-15.4l1.5 1.8c-26.5 7.6-38.7 19.1-38.7 19.1s3.2-1.8 8.6-4.3c15.6-6.9 28-8.8 33.1-9.2.9-.1 1.7-.2 2.6-.2 9.2-1.2 19.5-1.5 30.2-.3 14.2 1.6 29.5 5.7 45.2 14 0 0-11.6-11-36.6-18.5l2.1-2.4s20.1-.4 41.2 15.4c0 0 21.1 38.3 21.1 85.5 0 0-12.4 21.3-44.8 22.3Z"/></svg>